<svg xmlns="http://www.w3.org/2000/svg" height="25" viewBox="0 0 1445.12 441.26"><defs><style>.cls-1{fill:#0993a7;}</style></defs><title>Asset 1</title><g id="Layer_2" data-name="Layer 2"><g id="Layer_7" data-name="Layer 7"><g id="Layer_8" data-name="Layer 8"><path class="cls-1" d="M399.77,258V120.09A120.09,120.09,0,0,0,279.68,0H120.09a119.55,119.55,0,0,0-51,11.33V0H0V154.74H69.11V131.13A47.16,47.16,0,0,1,116.27,84H283.5a47.16,47.16,0,0,1,47.16,47.16v57.61L0,187.8V318.19A120.09,120.09,0,0,0,120.09,438.28H279.68A120.09,120.09,0,0,0,399.77,318.19V292.37H330.66v14.78a47.16,47.16,0,0,1-47.16,47.16H116.27a47.16,47.16,0,0,1-47.16-47.16V260.09l330.65.9Z"/><path class="cls-1" d="M758.64,6.92l-205,357.59H750.79v76.75H418.49l75.88-131.69L620,85.42H425.47V6.92Z"/><path class="cls-1" d="M1187.1,221.61c0,14.83-.88,27-3.49,38.38H843.46c15.7,59.31,68,101.17,129.08,101.17,28.78,0,53.21-7.85,73.26-22.68H1154c-37.5,62.8-104.66,102-181.41,102-116,0-212.81-96.81-212.81-218.92S856.54,1.83,972.54,1.83C1091.16,1.83,1187.1,99.51,1187.1,221.61ZM843.46,182.36h259.91c-15.7-57.56-68.9-101.17-130.83-101.17S860,123.93,843.46,182.36Z"/><path class="cls-1" d="M1309.93,55.9c37.51-30.53,82.86-49.71,135.19-49.71V82.94c-75.88,0-128.21,62.79-135.19,136.93V438.78h-78.49V1.83h78.49Z"/></g></g></g></svg>