<svg xmlns="http://www.w3.org/2000/svg" height="25" viewBox="0 0 399.77 438.28"><defs><style>.cls-1{fill:#0993a7;}</style></defs><title>Asset 2</title><g id="Layer_2" data-name="Layer 2"><g id="Layer_7" data-name="Layer 7"><g id="Layer_8" data-name="Layer 8"><path class="cls-1" d="M399.77,258V120.09A120.09,120.09,0,0,0,279.68,0H120.09a119.55,119.55,0,0,0-51,11.33V0H0V154.74H69.11V131.13A47.16,47.16,0,0,1,116.27,84H283.5a47.16,47.16,0,0,1,47.16,47.16v57.61L0,187.8V318.19A120.09,120.09,0,0,0,120.09,438.28H279.68A120.09,120.09,0,0,0,399.77,318.19V292.37H330.66v14.78a47.16,47.16,0,0,1-47.16,47.16H116.27a47.16,47.16,0,0,1-47.16-47.16V260.09l330.65.9Z"/></g></g></g></svg>